/* XPM */
static char *_5ceea6f464a48bbe0e9abd04738c33c[] = {
/* columns rows colors chars-per-pixel */
"64 64 195 2 ",
"   c black",
".  c #030003",
"X  c #020202",
"o  c #040004",
"O  c #050005",
"+  c gray2",
"@  c #060606",
"#  c #090009",
"$  c #0B000B",
"%  c #0D000D",
"&  c #0E000E",
"*  c #0F000F",
"=  c #0B090B",
"-  c #0B0A0B",
";  c #0C090C",
":  c #0C0C0C",
">  c gray5",
",  c #0E0D0E",
"<  c #0E0E0E",
"1  c #100010",
"2  c #100110",
"3  c #120112",
"4  c #130013",
"5  c #130113",
"6  c #120212",
"7  c #140014",
"8  c #140114",
"9  c #180018",
"0  c #190019",
"q  c #1A001A",
"w  c #1D001D",
"e  c #1E001E",
"r  c #1F001F",
"t  c gray7",
"y  c #131213",
"u  c #131313",
"i  c #141314",
"p  c #151415",
"a  c #191919",
"s  c gray10",
"d  c gray11",
"f  c #210021",
"g  c #220022",
"h  c #240024",
"j  c #260026",
"k  c #280028",
"l  c #2B002A",
"z  c #2C002B",
"x  c #310030",
"c  c #320031",
"v  c #330032",
"b  c #340033",
"n  c #350034",
"m  c #380037",
"M  c #3A0039",
"N  c #3B003A",
"B  c #3C003B",
"V  c #3E003D",
"C  c #3F003E",
"Z  c gray14",
"A  c #252525",
"S  c gray15",
"D  c #272727",
"F  c #353535",
"G  c gray21",
"H  c #373737",
"J  c #410040",
"K  c #420041",
"L  c #430042",
"P  c #440043",
"I  c #450044",
"U  c #460045",
"Y  c #470046",
"T  c #480047",
"R  c #490048",
"E  c #4A0049",
"W  c #4B004A",
"Q  c #4C004B",
"!  c #4E004D",
"~  c #50004F",
"^  c #550054",
"/  c #560055",
"(  c #570056",
")  c #580057",
"_  c #590058",
"`  c #5B005A",
"'  c #5C005B",
"]  c #5D005C",
"[  c #5E005D",
"{  c #660065",
"}  c #670066",
"|  c #690068",
" . c #6A0069",
".. c #710070",
"X. c #780077",
"o. c #7A0079",
"O. c #7B007A",
"+. c #7C007B",
"@. c gray28",
"#. c #484848",
"$. c #494949",
"%. c gray31",
"&. c #505050",
"*. c #515151",
"=. c #535353",
"-. c gray37",
";. c #5F5F5F",
":. c #606060",
">. c gray38",
",. c #626262",
"<. c #656565",
"1. c gray40",
"2. c DimGray",
"3. c #6A6A6A",
"4. c gray42",
"5. c #6C6C6C",
"6. c gray43",
"7. c #6F6F6F",
"8. c #80007E",
"9. c #81007F",
"0. c #820080",
"q. c #830081",
"w. c #850083",
"e. c #860084",
"r. c #870085",
"t. c #880086",
"y. c #890087",
"u. c #8A0088",
"i. c #960094",
"p. c #970095",
"a. c #990097",
"s. c #A900A7",
"d. c #AE00AC",
"f. c #B000AE",
"g. c #BB00B9",
"h. c #BC00BA",
"j. c #BE00BC",
"k. c #BF00BD",
"l. c #C900C7",
"z. c #CB00C9",
"x. c #CD00CB",
"c. c #CE00CC",
"v. c #DA00D7",
"b. c #DB00D8",
"n. c #DC00D9",
"m. c #DE00DB",
"M. c #DF00DC",
"N. c #E100DE",
"B. c #E300E0",
"V. c #E600E3",
"C. c #E700E4",
"Z. c #E800E5",
"A. c #E900E6",
"S. c #EA00E7",
"D. c #EC00E9",
"F. c #EE00EB",
"G. c #EF00EC",
"H. c #F000ED",
"J. c #F100EE",
"K. c #FC00F9",
"L. c #FD00FA",
"P. c #FE00FB",
"I. c #FF00FC",
"U. c #959595",
"Y. c gray59",
"T. c #A0A0A0",
"R. c gray63",
"E. c #A2A2A2",
"W. c #A4A4A4",
"Q. c #A5A5A5",
"!. c #AAAAAA",
"~. c gray67",
"^. c gray79",
"/. c #CACACA",
"(. c #CBCBCB",
"). c gray80",
"_. c #CECECE",
"`. c gray81",
"'. c #D2D2D2",
"]. c #DDDDDD",
"[. c gray87",
"{. c #DFDFDF",
"}. c gray88",
"|. c #E9E9E9",
" X c #EAEAEA",
".X c #ECECEC",
"XX c gray93",
"oX c gray94",
"OX c #F1F1F1",
"+X c gray96",
"@X c gray97",
"#X c #F8F8F8",
"$X c #FBFBFB",
"%X c #FDFDFD",
"&X c gray100",
/* pixels */
"&X&X&X&X&X&X&X&X&X&X&X&X&X&X&X&X&X&X&X&X&X&X&X&X&X&X&X&X&X&X&X&X&X&X&X&X&X&X&X&X&X&X&X&X&X&X&X&X&X&X&X&X&X&X&X&X&X&X&X&X&X&X&X&X",
"&X&X&X&X&X&X&X&X&X&X&X&X&X&X&X&X&X&X&X&X&X&X&X&X_.Y.5.@.D u @   @ u D $.5.Y._.&X&X&X&X&X&X&X&X&X&X&X&X&X&X&X&X&X&X&X&X&X&X&X&X&X",
"&X&X&X&X&X&X&X&X&X&X&X&X&X&X&X&X&X&X&X&XOXR.=.u f ' u.d.l.n.Z.G.F.N.l.d.r.' f u =.R.oX&X&X&X&X&X&X&X&X&X&X&X&X&X&X&X&X&X&X&X&X&X",
"&X&X&X&X&X&X&X&X&X&X&X&X&X&X&X&X&X&X_.>.- J p.m.K.I.I.I.I.I.K.I.K.I.I.I.K.I.I.M.p.J - >._.&X&X&X&X&X&X&X&X&X&X&X&X&X&X&X&X&X&X&X",
"&X&X&X&X&X&X&X&X&X&X&X&X&X&X&X&X(.#.* O.N.I.I.I.I.I.I.I.I.I.I.I.I.I.I.I.I.I.I.I.I.I.N.O.* #.(.&X&X&X&X&X&X&X&X&X&X&X&X&X&X&X&X&X",
"&X&X&X&X&X&X&X&X&X&X&X&X&X&XXX1.3 q.G.I.I.I.I.I.I.I.I.I.I.I.I.I.I.I.I.I.I.I.I.I.I.I.I.I.G.q.3 1.XX&X&X&X&X&X&X&X&X&X&X&X&X&X&X&X",
"&X&X&X&X&X&X&X&X&X&X&X&X&X!.p ] Z.I.I.I.I.I.I.I.I.I.I.I.I.I.I.I.I.I.I.I.I.I.I.I.I.I.I.I.I.I.Z.' p ~.&X&X&X&X&X&X&X&X&X&X&X&X&X&X",
"&X&X&X&X&X&X&X&X&X&X&X#X5.9 g.I.I.I.I.I.I.I.I.I.I.I.I.I.I.I.I.I.I.I.I.I.I.I.I.I.I.I.I.I.I.I.I.I.g.9 5.#X&X&X&X&X&X&X&X&X&X&X&X&X",
"&X&X&X&X&X&X&X&X&X&X.XG U S.I.I.I.I.I.I.I.I.I.I.I.I.I.I.I.I.I.I.I.I.I.I.I.I.I.I.I.I.I.I.I.I.I.I.I.S.U G .X&X&X&X&X&X&X&X&X&X&X&X",
"&X&X&X&X&X&X&X&X&X{.Z  .K.I.I.I.I.I.I.I.I.I.I.I.I.I.I.I.I.I.I.I.I.I.I.I.I.I.I.I.I.I.I.I.I.I.I.I.I.I.K. .Z {.&X&X&X&X&X&X&X&X&X&X",
"&X&X&X&X&X&X&X&X}.d 9.I.I.I.I.I.I.I.I.I.I.I.I.I.I.I.I.I.I.I.I.I.I.I.I.I.I.I.I.I.I.I.I.I.I.I.I.I.I.I.I.I.9.d {.&X&X&X&X&X&X&X&X&X",
"&X&X&X&X&X&X&X.XZ r.I.I.I.I.I.I.I.I.I.I.I.I.I.I.I.I.I.I.I.I.I.I.I.I.I.I.I.I.I.I.I.I.I.I.I.I.I.I.I.I.I.I.K.q.Z .X&X&X&X&X&X&X&X&X",
"&X&X&X&X&X&X@XG ..I.I.I.I.I.I.I.I.I.I.I.I.I.I.I.I.I.I.I.I.I.I.I.I.I.I.I.I.I.I.I.I.I.I.I.I.I.I.I.I.I.I.I.I.I. .G @X&X&X&X&X&X&X&X",
"&X&X&X&X&X&X3.R K.I.I.I.I.I.I.I.I.I.I.I.I.I.I.I.I.I.I.I.I.I.I.I.I.I.I.I.I.I.I.I.I.I.I.I.I.I.I.I.I.I.I.I.I.I.K.U 3.&X&X&X&X&X&X&X",
"&X&X&X&X&X!.w F.I.I.I.I.I.I.I.I.I.I.I.I.I.I.I.I.I.I.I.I.I.I.I.I.I.I.I.I.I.I.I.I.I.I.I.I.I.I.I.I.I.I.I.I.I.I.I.S.9 !.&X&X&X&X&X&X",
"&X&X&X&X.Xi k.I.I.I.I.I.I.I.I.I.( o               U I.I.I.I.I.I.I.I.I.I.I.I.I.I.I.        I.  U 7   I.I.I.I.I.K.k.u .X&X&X&X&X&X",
"&X&X&X&X;.{ K.I.I.I.I.I.I.I.I.I.o ( o           n f   I.I.I.I.I.I.I.I.I.I.I.I.I.I.        I.z z     I.I.I.I.I.I.I.{ ;.&X&X&X&X&X",
"&X&X&X(.3 F.I.I.I.I.I.I.I.I.I.I.  o ~         f n       I.I.I.I.I.I.I.I.I.I.I.I.I.        I.P       I.I.I.I.I.I.I.F.3 (.&X&X&X&X",
"&X&X&X$.r.I.I.I.I.I.I.I.I.I.I.I.            * U           I.I.I.I.I.I.I.I.I.I.I.I.        I.        I.I.I.I.I.I.I.I.r.$.&X&X&X&X",
"&X&X_.* G.I.I.I.I.I.I.I.I.I.I.I.        I.  I.            I.I.I.I.I.I.I.I.I.I.I.I.        I.        I.I.I.I.I.I.I.I.G.* _.&X&X&X",
"&X&X:.O.I.I.I.I.I.I.I.I.I.I.I.I.        I.  I.I.            I.I.I.I.I.I.I.I.I.I.I.        I.        I.I.I.I.I.I.I.I.I.O.;.&X&X&X",
"&XOX- m.I.I.I.I.I.I.I.I.I.I.I.I.        I.    I.I.            I.I.I.I.I.I.I.I.I.I.        I.        I.I.I.I.I.I.I.I.I.M.= OX&X&X",
"&XR.V I.I.I.I.I.I.I.I.I.I.I.I.I.        I.  U   I.              I.I.I.I.I.I.I.I.I.        I.        I.I.I.I.I.I.I.I.I.I.B T.&X&X",
"&X&.p.I.I.I.I.I.I.I.I.I.I.I.I.I.        I.9 z     I.m V m c $   I.I.I.I.I.I.I.I.I.        I.        I.I.I.I.I.I.I.I.I.K.p.=.&X&X",
"#X< m.K.I.I.I.I.I.I.I.I.I.I.I.I.        I.U         I.    # c m m I.I.I.I.I.I.I.I.        I.        I.I.I.I.I.I.I.I.I.I.m.< $X&X",
"(.w I.I.I.I.I.I.I.I.I.I.I.I.I.I.j       I.9         I.I.            I.I.I.I.I.I.I.R       I.        I.I.I.I.I.I.I.I.I.I.K.w (.&X",
"Y.' I.I.I.I.I.I.I.I.I.I.I.I.I.I.j m     I.            I.I.            I.I.I.I.I.I.n 9     I.      U I.I.I.I.I.I.I.I.I.I.I.' U.&X",
"7.u.I.I.I.I.I.I.I.I.I.I.I.I.I.I.  3 U   I.              I.I.          I.I.I.I.I.I.  Q     I.    f k I.I.I.I.I.I.I.I.I.I.I.u.5.&X",
"#.d.I.I.I.I.I.I.I.I.I.I.I.I.I.I.        I.                I.I.      o ~ I.I.I.I.I.  k j   I.    U   I.I.I.I.I.I.I.I.I.I.I.f.$.&X",
"Z c.I.I.I.I.I.I.I.I.I.I.I.I.I.I.        I.            o U I.I.    o ) o   I.I.I.I.    Q   I.  B *   I.I.I.I.I.I.I.I.I.I.I.c.Z &X",
"p n.I.I.I.I.I.I.I.I.I.I.I.I.I.I.        I.        $ ~ ~ $   I.I.o ( o       I.I.I.    9 c I.* m     I.I.I.I.I.I.I.I.I.I.K.n.s &X",
"@ Z.I.I.I.I.I.I.I.I.I.I.I.I.I.I.        I.      ~ I.o         I.I.o           I.I.      R I.T       I.I.I.I.I.I.I.I.I.I.I.S.< &X",
"  G.I.I.I.I.I.I.I.I.I.I.I.I.I.I.        I.        I.I.        q.I.I.          I.I.        I.f       I.I.I.I.I.I.I.I.I.I.I.G.  &X",
"@ S.I.I.I.I.I.I.I.I.I.I.I.I.I.I.        I.        I.I.        +.I.I.I.          I.        I.        I.I.I.I.I.I.I.I.I.I.I.S.< &X",
"i n.I.I.I.I.I.I.I.I.I.I.I.I.I.I.        I.        I.I.I.      9.  I.I.I.        B         I.        I.I.I.I.I.I.I.I.I.I.K.m.s &X",
"Z c.I.I.I.I.I.I.I.I.I.I.I.I.I.I.        I.U o     I.I.I.I.    q.    I.I.        B         I.        I.I.I.I.I.I.I.I.I.I.I.c.Z &X",
"#.f.I.I.I.I.I.I.I.I.I.I.I.I.I.I.  9 R   I.* Q Q $ I.I.I.I.I.  +.      I.I.      B         I.        I.I.I.I.I.I.I.I.I.I.I.f.$.&X",
"7.u.I.I.I.I.I.I.I.I.I.I.I.I.I.I.c c     I.    o U I.I.I.I.I.I.9.        I.I.    B         I.        I.I.I.I.I.I.I.I.I.I.I.u.5.&X",
"Y.' I.I.I.I.I.I.I.I.I.I.I.I.I.I.9       I.        I.I.I.I.I.K.9.        I.I.I.  B         I.        I.I.I.I.I.I.I.I.I.I.I.' Y.&X",
"(.r I.I.I.I.I.I.I.I.I.I.I.I.I.I.        I.        I.I.I.I.I.I.I.          I.I.I.B         I.        I.I.I.I.I.I.I.I.I.I.I.w (.&X",
"#X> n.K.I.I.I.I.I.I.I.I.I.I.I.I.        I.        I.I.I.I.I.I.I.I.          I.I.I.        I.  * J J I.I.I.I.I.I.I.I.I.I.m.: $X&X",
"&X&.p.I.I.I.I.I.I.I.I.I.I.I.I.I.        I.        I.I.I.I.I.I.I.I.I.          I.I.I.      I.J m o   I.I.I.I.I.I.I.I.I.I.p.%.&X&X",
"&XW.V I.I.I.I.I.I.I.I.I.I.I.I.I.        I.        I.I.I.I.I.I.I.I.I.n n c n n I.I.I.      I.        I.I.I.I.I.I.I.I.I.I.V R.&X&X",
"&X@X< m.I.I.I.I.I.I.I.I.I.I.I.I.        I.        I.I.I.I.I.I.I.I.I.I.          I.I.I.    I.        I.I.I.I.I.I.I.I.I.m.< @X&X&X",
"&X&X>.O.I.I.I.I.I.I.I.I.I.I.I.I.        I.        I.I.I.I.I.I.I.I.I.I.I.          I.I.I.  I.        I.I.I.I.I.I.I.I.K.O.>.&X&X&X",
"&X&X_.* G.I.I.I.I.I.I.I.I.I.I.I.        I.z       I.I.I.I.I.I.I.I.I.I.I.I.          I.I.I.I.        I.I.I.I.I.I.I.I.J.3 _.&X&X&X",
"&X&X&X@.r.I.I.I.I.I.I.I.I.I.I.I.        I.R o     I.I.I.I.I.I.I.I.I.I.I.I.I.          I.I.I.        I.I.I.I.I.I.I.I.r.@.&X&X&X&X",
"&X&X&X(.3 F.I.I.I.I.I.I.I.I.I.I.        I.o Q     I.I.I.I.I.I.I.I.I.I.I.I.I.          I.  ~ o       I.I.I.I.I.I.K.F.3 (.&X&X&X&X",
"&X&X&X&X;.{ K.I.I.I.I.I.I.I.I.I.        I.  z j   I.I.I.I.I.I.I.I.I.I.I.I.I.I.            o ( o     I.I.I.I.I.I.I.{ ;.&X&X&X&X&X",
"&X&X&X&X.Xi k.I.I.I.I.I.I.I.I.I.        I.    R   I.I.I.I.I.I.I.I.I.I.I.I.I.I.I.              ( o   I.I.I.I.I.I.k.i .X&X&X&X&X&X",
"&X&X&X&X&X!.w J.I.I.I.I.I.I.I.I.        I.        I.I.I.I.I.I.I.I.I.I.I.I.I.I.I.I.              ~   I.I.I.I.K.S.9 !.&X&X&X&X&X&X",
"&X&X&X&X&X&X3.R K.I.I.I.I.I.I.I.I.I.I.I.I.I.I.I.I.I.I.I.I.I.I.I.I.I.I.I.I.I.I.I.I.I.I.I.I.I.I.I.I.I.I.I.I.I.I.U 3.&X&X&X&X&X&X&X",
"&X&X&X&X&X&X@XG X.I.I.I.I.I.I.I.I.I.I.I.I.I.I.I.I.I.I.I.I.I.I.I.I.I.I.I.I.I.I.I.I.I.I.I.I.I.I.I.I.I.I.I.I.I.X.G @X&X&X&X&X&X&X&X",
"&X&X&X&X&X&X&X.XZ u.I.I.I.I.I.I.I.I.I.I.I.I.I.I.I.I.I.I.I.I.I.I.I.I.I.I.I.I.I.I.I.I.I.I.I.I.I.I.I.I.I.I.I.t.Z .X&X&X&X&X&X&X&X&X",
"&X&X&X&X&X&X&X&X{.d q.I.I.I.I.I.I.I.I.I.I.I.I.I.I.I.I.I.I.I.I.I.I.I.I.I.I.I.I.I.I.I.I.I.I.I.I.I.I.I.I.I.q.d {.&X&X&X&X&X&X&X&X&X",
"&X&X&X&X&X&X&X&X&X{.Z  .K.I.I.I.I.I.I.I.I.I.I.I.I.I.I.I.I.I.I.I.I.I.I.I.I.I.I.I.I.I.I.I.I.I.I.I.I.I.K. .Z }.&X&X&X&X&X&X&X&X&X&X",
"&X&X&X&X&X&X&X&X&X&X.XF U G.I.I.I.I.I.I.I.I.I.I.I.I.I.I.I.I.I.I.I.I.I.I.I.I.I.I.I.I.I.I.I.I.I.I.I.G.U F .X&X&X&X&X&X&X&X&X&X&X&X",
"&X&X&X&X&X&X&X&X&X&X&X@X3.w k.I.I.I.I.I.I.I.I.I.I.I.I.I.I.I.I.I.I.I.I.I.I.I.I.I.I.I.I.I.I.I.I.I.k.w 3.@X&X&X&X&X&X&X&X&X&X&X&X&X",
"&X&X&X&X&X&X&X&X&X&X&X&X&X!.p ] S.K.I.I.I.I.I.I.I.I.I.I.I.I.I.I.I.I.I.I.I.I.I.I.I.I.I.I.I.I.S.] p !.&X&X&X&X&X&X&X&X&X&X&X&X&X&X",
"&X&X&X&X&X&X&X&X&X&X&X&X&X&X.X1.3 r.G.I.I.I.I.I.I.I.I.I.I.I.I.I.I.I.I.I.I.I.I.I.I.I.I.K.J.r.3 <.XX&X&X&X&X&X&X&X&X&X&X&X&X&X&X&X",
"&X&X&X&X&X&X&X&X&X&X&X&X&X&X&X&X(.%.* O.B.I.I.I.I.I.I.I.I.I.I.I.I.I.I.I.I.I.I.I.I.I.N.O.* %.(.&X&X&X&X&X&X&X&X&X&X&X&X&X&X&X&X&X",
"&X&X&X&X&X&X&X&X&X&X&X&X&X&X&X&X&X&X'.>.= J p.N.I.I.I.I.I.I.I.I.I.I.I.I.I.I.I.B.a.J ; >.'.&X&X&X&X&X&X&X&X&X&X&X&X&X&X&X&X&X&X&X",
"&X&X&X&X&X&X&X&X&X&X&X&X&X&X&X&X&X&X&X&XoXR.&.u f ( q.s.l.n.Z.G.G.N.x.s.q.( f u =.T.OX&X&X&X&X&X&X&X&X&X&X&X&X&X&X&X&X&X&X&X&X&X",
"&X&X&X&X&X&X&X&X&X&X&X&X&X&X&X&X&X&X&X&X&X&X&X&X`.Y.6.@.Z s <     u Z #.5.Y._.&X&X&X&X&X&X&X&X&X&X&X&X&X&X&X&X&X&X&X&X&X&X&X&X&X"
};
