/* XPM */
static char *c2c607a7fbfb4114bae4ecd140179cba[] = {
/* columns rows colors chars-per-pixel */
"32 32 93 2 ",
"   c black",
".  c #010001",
"X  c #020002",
"o  c #0E000E",
"O  c #130013",
"+  c #140014",
"@  c #180018",
"#  c #1A001A",
"$  c #1B001B",
"%  c #1C001C",
"&  c #1D001D",
"*  c #1E001E",
"=  c #210021",
"-  c #250025",
";  c #260026",
":  c #290029",
">  c #2A002A",
",  c #2B002A",
"<  c #2C002B",
"1  c #2D002C",
"2  c #2E002D",
"3  c #30002F",
"4  c #320031",
"5  c #330032",
"6  c #6D176D",
"7  c #6E176D",
"8  c #6C1E6B",
"9  c #780077",
"0  c #7C057B",
"q  c #7D067C",
"w  c #790E78",
"e  c #791578",
"r  c #7B157A",
"t  c #772576",
"y  c #772676",
"u  c #782677",
"i  c #793478",
"p  c #7A3579",
"a  c #6A4069",
"s  c #6B416A",
"d  c #6B4F6B",
"f  c #6D516D",
"g  c #754F74",
"h  c #765075",
"j  c #775076",
"k  c #735973",
"l  c #745974",
"z  c #755A75",
"x  c #766276",
"c  c #786278",
"v  c #796379",
"b  c #840783",
"n  c #820981",
"m  c #830982",
"M  c #830A82",
"N  c #860A84",
"B  c #870A85",
"V  c #880A86",
"C  c #90008E",
"Z  c #920090",
"A  c #920190",
"S  c #930191",
"D  c #960294",
"F  c #980296",
"G  c #A800A6",
"H  c #A900A7",
"J  c #D200D0",
"K  c #E400E1",
"L  c #EB00E8",
"P  c #EC00E9",
"I  c #F200EF",
"U  c #F900F6",
"Y  c #FD00FA",
"T  c #FE00FB",
"R  c #FF00FC",
"E  c #8E8E8E",
"W  c gray56",
"Q  c #A2A2A2",
"!  c gray64",
"~  c gray71",
"^  c gray74",
"/  c #C1C1C1",
"(  c #C3C3C3",
")  c #C6C6C6",
"_  c #C8C8C8",
"`  c #D0D0D0",
"'  c gray82",
"]  c gray86",
"[  c gainsboro",
"{  c gray90",
"}  c gray93",
"|  c #EEEEEE",
" . c gray100",
/* pixels */
" . . . . . . . . . .| ! v p e q q e p v ! |  . . . . . . . . . .",
" . . . . . . . .' z b J T R R R R R R T J b k '  . . . . . . . .",
" . . . . . .| x D U R R R R R R R R R R R R U D x |  . . . . . .",
" . . . . .) 8 P R R R R R R R R R R R R R R R R L 8 _  . . . . .",
" . . . .~ n T R R R R R R R R R R R R R R R R R R T n ~  . . . .",
" . . .( B R R R R R R R R R R R R R R R R R R R R R R B (  . . .",
" . .{ 7 R R R R R R R T R R R R R R R R R T R T R R R R 7 {  . .",
" . .f I R R R R 1 . . . R R R R R R R R R . . . > R R T I d  . .",
" .^ G R R R R R . 1 . . 4 T R R R R R R T . . > . R R R R G ^  .",
" .a T R R R R R . . R T . . R R R R R R T . . . . R R R R T a  .",
"] C T R R R R R . . . T R . . R R R R R R . . . . R R R R R Z ] ",
"W K R R R R R R . . . 1 T . . . R R R R T . . . . T R R R R K W ",
"g R R R R R R R O . @ @ . T & & & T R R R . . . . R R R R R R h ",
"y R R R R R R R O - 1 . . . R . . . R R R . . . > R R R R R R u ",
"w R R R R R R R . . . . . . . R . < R R R + . @ o T R R R R R w ",
"9 R R R R R R R . . . . T @ @ R R . . R R - o & . R R R R R R 9 ",
"w R R R R R R R . . . . R R . = R R . . R . > . . T R R R R R w ",
"y R R R R R R R . . . . R T . & . T . . & . . . . R R R R R R u ",
"g R R R R R R R . 1 @ @ R R R = . . T . & . . . . R R R R R R h ",
"W K R R R R R R 4 . . . R R R R . . . T & . . . . T R R R R K W ",
"] Z R R R R R R . . . . R R R R T . . . T . . . > R R R R R Z [ ",
" .a T R R R R R . . . . R R R R R T 4 4 . T < > . R R R R T a  .",
" .^ G R R R R R . . - . R R R R R R R . . T R . . R R R R G ^  .",
" . .d I R R R T . . O O R R R R R R R R . . . > . R R R I d  . .",
" . .{ 7 T R R R . . . - R R R R R R R R R . . . > R R R 7 {  . .",
" . . .( B R R R R R T R R R R R R R R R R R R R R R R B (  . . .",
" . . . .~ n T R R R R R R R R R R R R R R R R R R R n ~  . . . .",
" . . . . .) 8 P R R R R R R R R R R R R R R R R L 8 _  . . . . .",
" . . . . . .| x D U R R R R R R R R R R T T U D x |  . . . . . .",
" . . . . . . . .' k b J R R R R R R R R J b k `  . . . . . . . .",
" . . . . . . . . . .| ! c p e q q e p x ! }  . . . . . . . . . .",
" . . . . . . . . . . . . . . . . . . . . . . . . . . . . . . . ."
};
