/* XPM */
static char *f1a2df7d77d74121ad4f0ac2c908dadb[] = {
/* columns rows colors chars-per-pixel */
"128 128 85 1 ",
"  c #000000",
". c #0B000B",
"X c #0D0D0D",
"o c #120012",
"O c #1C001C",
"+ c gray7",
"@ c gray11",
"# c #240024",
"$ c #2C002C",
"% c #30002F",
"& c #340033",
"* c #380037",
"= c #3C003B",
"- c #242424",
"; c #2E2E2E",
": c #363636",
"> c #40003F",
", c #450044",
"< c #480047",
"1 c #4B004A",
"2 c #50004F",
"3 c #530052",
"4 c #580057",
"5 c #5C005A",
"6 c #60005F",
"7 c #640063",
"8 c #6C006B",
"9 c #740073",
"0 c #780077",
"q c #7B007A",
"w c #434343",
"e c #4C4C4C",
"r c #555555",
"t c #5B5B5B",
"y c #626262",
"u c #6D6D6D",
"i c #747474",
"p c gray48",
"a c #81007F",
"s c #850083",
"d c #880086",
"f c #8C008A",
"g c #91008F",
"h c #940092",
"j c #980097",
"k c #9D009B",
"l c #A0009E",
"z c #A400A2",
"x c #A900A7",
"c c #AC00AA",
"v c #B000AE",
"b c #B300B1",
"n c #B900B7",
"m c #BD00BB",
"M c #C000BE",
"N c #C500C3",
"B c #C800C6",
"V c #CB00C9",
"C c #D500D2",
"Z c #D800D5",
"A c #DD00DA",
"S c #E100DE",
"D c #E600E3",
"F c #E900E6",
"G c #EC00E9",
"H c #F000ED",
"J c #F500F2",
"K c #F900F6",
"L c #FF00FC",
"P c #838383",
"I c #8C8C8C",
"U c #969696",
"Y c gray60",
"T c #A4A4A4",
"R c #AAAAAA",
"E c #B5B5B5",
"W c #BCBCBC",
"Q c #C0C0C0",
"! c #CACACA",
"~ c #D5D5D5",
"^ c #DCDCDC",
"/ c #E2E2E2",
"( c gray93",
") c #F4F4F4",
"_ c #FFFFFF",
/* pixels */
"________________________________________________________________________________________________________________________________",
"________________________________________________________________________________________________________________________________",
"_____________________________________________________)!TPye:-++. .X+-:eyPT!)____________________________________________________",
"_________________________________________________!Ir-                       -rI!________________________________________________",
"_____________________________________________/UeX     o,5skvMCAADAACNcka5,o     XeY/____________________________________________",
"__________________________________________/I:    o1snFLLLLLLLLLLLLLLLLLLLLLFns1o    :I/_________________________________________",
"_______________________________________)Re    =sVLLLLLLLLLLLLLLLLLLLLLLLLLLLLLLLVs=    eT_______________________________________",
"_____________________________________(I@   =gDLLLLLLLLLLLLLLLLLLLLLLLLLLLLLLLLLLLLLDg=   @P(____________________________________",
"___________________________________(iX  o9ZLLLLLLLLLLLLLLLLLLLLLLLLLLLLLLLLLLLLLLLLLLLC9O  Xi(__________________________________",
"_________________________________(iX  #kKLLLLLLLLLLLLLLLLLLLLLLLLLLLLLLLLLLLLLLLLLLLLLLLKk#  Xi)________________________________",
"________________________________U+  $vLLLLLLLLLLLLLLLLLLLLLLLLLLLLLLLLLLLLLLLLLLLLLLLLLLLLLc$  +U_______________________________",
"______________________________!;  #cLLLLLLLLLLLLLLLLLLLLLLLLLLLLLLLLLLLLLLLLLLLLLLLLLLLLLLLLLc#  ;!_____________________________",
"____________________________)i  odKLLLLLLLLLLLLLLLLLLLLLLLLLLLLLLLLLLLLLLLLLLLLLLLLLLLLLLLLLLLKfo  i)___________________________",
"___________________________!-  3DLLLLLLLLLLLLLLLLLLLLLLLLLLLLLLLLLLLLLLLLLLLLLLLLLLLLLLLLLLLLLLLD3  -!__________________________",
"__________________________I  ovLLLLLLLLLLLLLLLLLLLLLLLLLLLLLLLLLLLLLLLLLLLLLLLLLLLLLLLLLLLLLLLLLLLvo .I_________________________",
"________________________)e  1FLLLLLLLLLLLLLLLLLLLLLLLLLLLLLLLLLLLLLLLLLLLLLLLLLLLLLLLLLLLLLLLLLLLLLD1  e(_______________________",
"_______________________~-  jLLLLLLLLLLLLLLLLLLLLLLLLLLLLLLLLLLLLLLLLLLLLLLLLLLLLLLLLLLLLLLLLLLLLLLLLLh  -~______________________",
"______________________Q+ ONLLLLLLLLLLLLLLLLLLLLLLLLLLLLLLLLLLLLLLLLLLLLLLLLLLLLLLLLLLLLLLLLLLLLLLLLLLLVO +W_____________________",
"_____________________TX &DLLLLLLLLLLLLLLLLLLLLLLLLLLLLLLLLLLLLLLLLLLLLLLLLLLLLLLLLLLLLLLLLLLLLLLLLLLLLLD& XT____________________",
"____________________Y  1JLLLLLLLLLLLLLLLLLLLLLLLLLLLLLLLLLLLLLLLLLLLLLLLLLLLLLLLLLLLLLLLLLLLLLLLLLLLLLLLK1  Y___________________",
"___________________I  7KLLLLLLLLLLLLLLLLLLLLLLLLLLLLLLLLLLLLLLLLLLLLLLLLLLLLLLLLLLLLLLLLLLLLLLLLLLLLLLLLLL5  I__________________",
"__________________Y  8LLLLLLLLLLLLLLLLLLLLLLLLLLLLLLLLLLLLLLLLLLLLLLLLLLLLLLLLLLLLLLLLLLLLLLLLLLLLLLLLLLLLL8  Y_________________",
"_________________T  9LLLLLLLLLLLLLLLLLLLLLLLLLLLLLLLLLLLLLLLLLLLLLLLLLLLLLLLLLLLLLLLLLLLLLLLLLLLLLLLLLLLLLLL8  T________________",
"________________W. 7LLLLLLLLLLLLLLLLLLLLLLLLLLLLLLLLLLLLLLLLLLLLLLLLLLLLLLLLLLLLLLLLLLLLLLLLLLLLLLLLLLLLLLLLL7 .W_______________",
"_______________~+ 3LLLLLLLLLLLLLLLLLLLLLLLLLLLLLLLLLLLLLLLLLLLLLLLLLLLLLLLLLLLLLLLLLLLLLLLLLLLLLLLLLLLLLLLLLLL4 X~______________",
"______________(@ *KLLLLLLLLLLLLLLLLLLLLLLLLLLLLLLLLLLLLLLLLLLLLLLLLLLLLLLLLLLLLLLLLLLLLLLLLLLLLLLLLLLLLLLLLLLLK& @(_____________",
"______________w OFLLLLLLLLLLLLLLLLLLLLLLLLLLLLLLLLLLLLLLLLLLLLLLLLLLLLLLLLLLLLLLLLLLLLLLLLLLLLLLLLLLLLLLLLLLLLLFO w_____________",
"_____________p .VLLLLLLLLLLLLLLLLLLLLLLLLLLLLLLLLLLLLLLLLLLLLLLLLLLLLLLLLLLLLLLLLLLLLLLLLLLLLLLLLLLLLLLLLLLLLLLLV. p____________",
"____________Q  kLLLLLLLLLLLLLLLsO               LLLLLLLLLLLLLLLLLLLLLLLLLLLLLLLLLL       LLL     s LLLLLLLLLLLLLLk  W___________",
"___________(@ 4LLLLLLLLLLLLLLLL d$               LLLLLLLLLLLLLLLLLLLLLLLLLLLLLLLLL       LLL    9# LLLLLLLLLLLLLLL5 @(__________",
"___________y #HLLLLLLLLLLLLLLLL  q<               LLLLLLLLLLLLLLLLLLLLLLLLLLLLLLLL       LLL   13  LLLLLLLLLLLLLLLH# y__________",
"__________W  mLLLLLLLLLLLLLLLLL   56               LLLLLLLLLLLLLLLLLLLLLLLLLLLLLLL       LLL  Oq   LLLLLLLLLLLLLLLLm  W_________",
"_________)- 7LLLLLLLLLLLLLLLLLL    <q             q$LLLLLLLLLLLLLLLLLLLLLLLLLLLLLL       LLL .g    LLLLLLLLLLLLLLLLL7 -)________",
"_________P OGLLLLLLLLLLLLLLLLLL     $d.          7, LLLLLLLLLLLLLLLLLLLLLLLLLLLLLL       LLL qO    LLLLLLLLLLLLLLLLLGO P________",
"________/X kLLLLLLLLLLLLLLLLLLL      Os   L     44   LLLLLLLLLLLLLLLLLLLLLLLLLLLLL       LLL3<     LLLLLLLLLLLLLLLLLLk X/_______",
"________y &LLLLLLLLLLLLLLLLLLLL       LLLLL    ,7     LLLLLLLLLLLLLLLLLLLLLLLLLLLL       LLL9      LLLLLLLLLLLLLLLLLLL& y_______",
"_______^. mLLLLLLLLLLLLLLLLLLLL       LLLLLL  $0       LLLLLLLLLLLLLLLLLLLLLLLLLLL       LLL       LLLLLLLLLLLLLLLLLLLm  ^______",
"_______t ,LLLLLLLLLLLLLLLLLLLLL       LLLLLLL#f         LLLLLLLLLLLLLLLLLLLLLLLLLL       LLL       LLLLLLLLLLLLLLLLLLLL< t______",
"______/. NLLLLLLLLLLLLLLLLLLLLL       L LLLLLL           LLLLLLLLLLLLLLLLLLLLLLLLL       LLL       LLLLLLLLLLLLLLLLLLLLN ./_____",
"______u =LLLLLLLLLLLLLLLLLLLLLL       L LLLLLLL          LLLLLLLLLLLLLLLLLLLLLLLLL       LLL       LLLLLLLLLLLLLLLLLLLLL= u_____",
"_____)X bLLLLLLLLLLLLLLLLLLLLLL       LL LLLLLLL          LLLLLLLLLLLLLLLLLLLLLLLL       LLL       LLLLLLLLLLLLLLLLLLLLLb X)____",
"_____Y #LLLLLLLLLLLLLLLLLLLLLLL       LL  LLLLLL           LLLLLLLLLLLLLLLLLLLLLLL       LLL       LLLLLLLLLLLLLLLLLLLLLL# Y____",
"_____; fLLLLLLLLLLLLLLLLLLLLLLL       LL   LLLLLL           LLLLLLLLLLLLLLLLLLLLLL       LLL       LLLLLLLLLLLLLLLLLLLLLLg ;____",
"____!  FLLLLLLLLLLLLLLLLLLLLLLL       LL    LLLLLL           LLLLLLLLLLLLLLLLLLLLL       LLL       LLLLLLLLLLLLLLLLLLLLLLF  !___",
"____p 3LLLLLLLLLLLLLLLLLLLLLLLL       LL     LLLLLL           LLLLLLLLLLLLLLLLLLLL       LLL       LLLLLLLLLLLLLLLLLLLLLLL3 i___",
"____@ xLLLLLLLLLLLLLLLLLLLLLLLL       LL    ,<LLLLLL           LLLLLLLLLLLLLLLLLLL       LLL       LLLLLLLLLLLLLLLLLLLLLLLx @___",
"___! .JLLLLLLLLLLLLLLLLLLLLLLLL       LL    d LLLLLLL=.        LLLLLLLLLLLLLLLLLLL       LLL       LLLLLLLLLLLLLLLLLLLLLLLK. !__",
"___P 2LLLLLLLLLLLLLLLLLLLLLLLLL       LL   7#  LLLLLL4dgd4O     LLLLLLLLLLLLLLLLLL       LLL       LLLLLLLLLLLLLLLLLLLLLLLL1 P__",
"___: jLLLLLLLLLLLLLLLLLLLLLLLLL       LL  oq    LLLLLL   =9gg9=. LLLLLLLLLLLLLLLLL       LLL       LLLLLLLLLLLLLLLLLLLLLLLLj :__",
"__(  SLLLLLLLLLLLLLLLLLLLLLLLLL       LL  qo     LLLLLL      O4dgdLLLLLLLLLLLLLLLL       LLL       LLLLLLLLLLLLLLLLLLLLLLLLS  (_",
"__E #LLLLLLLLLLLLLLLLLLLLLLLLLL&      LL #7       LLLLLL         .=LLLLLLLLLLLLLLLq      LLL       LLLLLLLLLLLLLLLLLLLLLLLLL# E_",
"__p 5LLLLLLLLLLLLLLLLLLLLLLLLLL91     LL d         LLLLLL           LLLLLLLLLLLLLL4$     LLL       LLLLLLLLLLLLLLLLLLLLLLLLL5 p_",
"__w jLLLLLLLLLLLLLLLLLLLLLLLLLL 75    LL<,         LLLLLLL          LLLLLLLLLLLLLL d     LLL      3LLLLLLLLLLLLLLLLLLLLLLLLLj w_",
"__+ VLLLLLLLLLLLLLLLLLLLLLLLLLL  19   LLq           LLLLLL           LLLLLLLLLLLLL 3*    LLL     osLLLLLLLLLLLLLLLLLLLLLLLLLV +_",
"_/  JLLLLLLLLLLLLLLLLLLLLLLLLLL   &d  LL             LLLLLL           LLLLLLLLLLLL  d    LLL     qoLLLLLLLLLLLLLLLLLLLLLLLLLK  /",
"_W #LLLLLLLLLLLLLLLLLLLLLLLLLLL    #g.LL              LLLLLL           LLLLLLLLLLL  1=   LLL    $7 LLLLLLLLLLLLLLLLLLLLLLLLLL# W",
"_Y 1LLLLLLLLLLLLLLLLLLLLLLLLLLL     osLL               LLLLLL          OLLLLLLLLLL   d   LLL    g  LLLLLLLLLLLLLLLLLLLLLLLLLL1 U",
"_i 8LLLLLLLLLLLLLLLLLLLLLLLLLLL       LL                LLLLLL        $d.LLLLLLLLL   >1  LLL   5&  LLLLLLLLLLLLLLLLLLLLLLLLLL8 i",
"_r fLLLLLLLLLLLLLLLLLLLLLLLLLLL       LL                 LLLLLL      <q   LLLLLLLL    d  LLL  oq   LLLLLLLLLLLLLLLLLLLLLLLLLLd r",
"_w zLLLLLLLLLLLLLLLLLLLLLLLLLLL       LL              .4dLLLLLL     75    LLLLLLLL    *2 LLL  ao   LLLLLLLLLLLLLLLLLLLLLLLLLLx w",
"_; nLLLLLLLLLLLLLLLLLLLLLLLLLLL       LL       L    &aa&  LLLLLL   q<      LLLLLLL     d LLL &5    LLLLLLLLLLLLLLLLLLLLLLLLLLn ;",
"_@ VLLLLLLLLLLLLLLLLLLLLLLLLLLL       LL       LLo8d4.     LLLLLL.d$        LLLLLL     %4LLL g     LLLLLLLLLLLLLLLLLLLLLLLLLLV @",
"_X CLLLLLLLLLLLLLLLLLLLLLLLLLLL       LL       LLq#         LLLLLLO          LLLLL      qLLL7$     LLLLLLLLLLLLLLLLLLLLLLLLLLC X",
"_X SLLLLLLLLLLLLLLLLLLLLLLLLLLL       LL       LLL           LLLLLL           LLLL       LLLq      LLLLLLLLLLLLLLLLLLLLLLLLLLS X",
"_  SLLLLLLLLLLLLLLLLLLLLLLLLLLL       LL       LLLL           LLLLLL           LLL       LLLo      LLLLLLLLLLLLLLLLLLLLLLLLLLS  ",
"_  SLLLLLLLLLLLLLLLLLLLLLLLLLLL       LL       LLLLL          LLLLLL           LLL       LLL       LLLLLLLLLLLLLLLLLLLLLLLLLLS  ",
"_X SLLLLLLLLLLLLLLLLLLLLLLLLLLL       LL       LLLLLL         dLLLLLL           LL       LLL       LLLLLLLLLLLLLLLLLLLLLLLLLLS X",
"_X CLLLLLLLLLLLLLLLLLLLLLLLLLLL       LL       LLLLLLL        q LLLLLL           L       LLL       LLLLLLLLLLLLLLLLLLLLLLLLLLC X",
"_@ VLLLLLLLLLLLLLLLLLLLLLLLLLLL       LL       LLLLLLL        s  LLLLLL         L        LLL       LLLLLLLLLLLLLLLLLLLLLLLLLLV @",
"_; nLLLLLLLLLLLLLLLLLLLLLLLLLLL       LL       LLLLLLLL       q   LLLLLL        L        LLL       LLLLLLLLLLLLLLLLLLLLLLLLLLn ;",
"_w zLLLLLLLLLLLLLLLLLLLLLLLLLLL       LLq$     LLLLLLLLL      a    LLLLLL       L        LLL       LLLLLLLLLLLLLLLLLLLLLLLLLLz w",
"_r fLLLLLLLLLLLLLLLLLLLLLLLLLLL       LLo4d9O  LLLLLLLLLL     q     LLLLL       L        LLL       LLLLLLLLLLLLLLLLLLLLLLLLLLf r",
"_i 8LLLLLLLLLLLLLLLLLLLLLLLLLLL     oaLL   o8d8LLLLLLLLLLL    a     LLLLLL      L        LLL       LLLLLLLLLLLLLLLLLLLLLLLLLL8 i",
"_Y 1LLLLLLLLLLLLLLLLLLLLLLLLLLL    ogoLL      OLLLLLLLLLLLL   a      LLLLLL     L        LLL       LLLLLLLLLLLLLLLLLLLLLLLLLL1 U",
"_W #LLLLLLLLLLLLLLLLLLLLLLLLLLL   ogo LL       LLLLLLLLLLLLL  q       LLLLLL    L        LLL       LLLLLLLLLLLLLLLLLLLLLLLLLL# W",
"_/  KLLLLLLLLLLLLLLLLLLLLLLLLLL  ogo  LL       LLLLLLLLLLLLL  s        LLLLLL   L        LLL       LLLLLLLLLLLLLLLLLLLLLLLLLK  /",
"__+ VLLLLLLLLLLLLLLLLLLLLLLLLLL ogo   LL       LLLLLLLLLLLLLL q         LLLLLL  L        LLL       LLLLLLLLLLLLLLLLLLLLLLLLLV +_",
"__w jLLLLLLLLLLLLLLLLLLLLLLLLLLogo    LL       LLLLLLLLLLLLLLLd          LLLLL  L        LLL       LLLLLLLLLLLLLLLLLLLLLLLLLk w_",
"__p 5LLLLLLLLLLLLLLLLLLLLLLLLLLso     LL       LLLLLLLLLLLLLLLL          LLLLLL L        LLL       LLLLLLLLLLLLLLLLLLLLLLLLL5 p_",
"__E #LLLLLLLLLLLLLLLLLLLLLLLLLL       LL       LLLLLLLLLLLLLLLLL          LLLLLLL        LLL       LLLLLLLLLLLLLLLLLLLLLLLLL# E_",
"__(  SLLLLLLLLLLLLLLLLLLLLLLLLL       LL       LLLLLLLLLLLLLLLLLL          LLLLLL        LLL       LLLLLLLLLLLLLLLLLLLLLLLLA  (_",
"___: jLLLLLLLLLLLLLLLLLLLLLLLLL       LL       LLLLLLLLLLLLLLLLLL           LLLLLL       LLL      OLLLLLLLLLLLLLLLLLLLLLLLLk :__",
"___P 2LLLLLLLLLLLLLLLLLLLLLLLLL       LL       LLLLLLLLLLLLLLLLLLL           LLLLL       LLL   $0d8LLLLLLLLLLLLLLLLLLLLLLLL3 p__",
"___! .JLLLLLLLLLLLLLLLLLLLLLLLL       LL       LLLLLLLLLLLLLLLLLLLL      .$3qjLLLLL      LLL,ad4o  LLLLLLLLLLLLLLLLLLLLLLLJ. !__",
"____@ xLLLLLLLLLLLLLLLLLLLLLLLL       LL       LLLLLLLLLLLLLLLLLLLLL<8gkkg8<#  LLLLL     LLL<      LLLLLLLLLLLLLLLLLLLLLLLc -___",
"____i 3LLLLLLLLLLLLLLLLLLLLLLLL       LL       LLLLLLLLLLLLLLLLLLLLLL$.        LLLLLL    LLL       LLLLLLLLLLLLLLLLLLLLLLL3 i___",
"____!  GLLLLLLLLLLLLLLLLLLLLLLL       LL       LLLLLLLLLLLLLLLLLLLLLLL          LLLLLL   LLL       LLLLLLLLLLLLLLLLLLLLLLF  !___",
"_____; gLLLLLLLLLLLLLLLLLLLLLLL       LL       LLLLLLLLLLLLLLLLLLLLLLLL          LLLLLL  LLL       LLLLLLLLLLLLLLLLLLLLLLg ;____",
"_____U #LLLLLLLLLLLLLLLLLLLLLLL       LL0      LLLLLLLLLLLLLLLLLLLLLLLL           LLLLL  LLL       LLLLLLLLLLLLLLLLLLLLLL# U____",
"_____)X bLLLLLLLLLLLLLLLLLLLLLL       LL4&     LLLLLLLLLLLLLLLLLLLLLLLLL           LLLLL LLL       LLLLLLLLLLLLLLLLLLLLLb X(____",
"______u =LLLLLLLLLLLLLLLLLLLLLL       LL d     LLLLLLLLLLLLLLLLLLLLLLLLLL           LLLL LLL       LLLLLLLLLLLLLLLLLLLLL, u_____",
"______/  BLLLLLLLLLLLLLLLLLLLLL       LL 3=    LLLLLLLLLLLLLLLLLLLLLLLLLLL          LLLLLLLL       LLLLLLLLLLLLLLLLLLLLN  /_____",
"_______t <LLLLLLLLLLLLLLLLLLLLL       LL  d    LLLLLLLLLLLLLLLLLLLLLLLLLLLL          LLLLLLL       LLLLLLLLLLLLLLLLLLLL< t______",
"_______^  mLLLLLLLLLLLLLLLLLLLL       LL  1,   LLLLLLLLLLLLLLLLLLLLLLLLLLLLL          LLLLLLo      LLLLLLLLLLLLLLLLLLLm .~______",
"________y &LLLLLLLLLLLLLLLLLLLL       LL   d   LLLLLLLLLLLLLLLLLLLLLLLLLLLLL           L   ojo     LLLLLLLLLLLLLLLLLLL& t_______",
"________/X kLLLLLLLLLLLLLLLLLLL       LL   =1  LLLLLLLLLLLLLLLLLLLLLLLLLLLLLL               oho    LLLLLLLLLLLLLLLLLLl X/_______",
"_________P OGLLLLLLLLLLLLLLLLLL       LL    d  LLLLLLLLLLLLLLLLLLLLLLLLLLLLLLL               oho   LLLLLLLLLLLLLLLLLJO P________",
"_________)- 7LLLLLLLLLLLLLLLLLL       LL    &3 LLLLLLLLLLLLLLLLLLLLLLLLLLLLLLLL               ojo  LLLLLLLLLLLLLLLLL7 -)________",
"__________W  nLLLLLLLLLLLLLLLLL       LL     d LLLLLLLLLLLLLLLLLLLLLLLLLLLLLLLLL               ojo LLLLLLLLLLLLLLLLm  W_________",
"___________t #HLLLLLLLLLLLLLLLL       LL     &4LLLLLLLLLLLLLLLLLLLLLLLLLLLLLLLLLL               ohoLLLLLLLLLLLLLLLH# t__________",
"___________(@ 4LLLLLLLLLLLLLLLL       LL      qLLLLLLLLLLLLLLLLLLLLLLLLLLLLLLLLLLL               osLLLLLLLLLLLLLLL4 @(__________",
"____________Q  kLLLLLLLLLLLLLLLLLLLLLLLLLLLLLLLLLLLLLLLLLLLLLLLLLLLLLLLLLLLLLLLLLLLLLLLLLLLLLLLLLLLLLLLLLLLLLLLLLk  W___________",
"_____________p .VLLLLLLLLLLLLLLLLLLLLLLLLLLLLLLLLLLLLLLLLLLLLLLLLLLLLLLLLLLLLLLLLLLLLLLLLLLLLLLLLLLLLLLLLLLLLLLLV. p____________",
"______________w #FLLLLLLLLLLLLLLLLLLLLLLLLLLLLLLLLLLLLLLLLLLLLLLLLLLLLLLLLLLLLLLLLLLLLLLLLLLLLLLLLLLLLLLLLLLLLLF# w_____________",
"______________(@ *KLLLLLLLLLLLLLLLLLLLLLLLLLLLLLLLLLLLLLLLLLLLLLLLLLLLLLLLLLLLLLLLLLLLLLLLLLLLLLLLLLLLLLLLLLLLK= @(_____________",
"_______________~X 4LLLLLLLLLLLLLLLLLLLLLLLLLLLLLLLLLLLLLLLLLLLLLLLLLLLLLLLLLLLLLLLLLLLLLLLLLLLLLLLLLLLLLLLLLLL4 X~______________",
"________________QX 7LLLLLLLLLLLLLLLLLLLLLLLLLLLLLLLLLLLLLLLLLLLLLLLLLLLLLLLLLLLLLLLLLLLLLLLLLLLLLLLLLLLLLLLLL7 .W_______________",
"_________________T  8LLLLLLLLLLLLLLLLLLLLLLLLLLLLLLLLLLLLLLLLLLLLLLLLLLLLLLLLLLLLLLLLLLLLLLLLLLLLLLLLLLLLLLL8  T________________",
"__________________U  8LLLLLLLLLLLLLLLLLLLLLLLLLLLLLLLLLLLLLLLLLLLLLLLLLLLLLLLLLLLLLLLLLLLLLLLLLLLLLLLLLLLLL8  U_________________",
"___________________I  6LLLLLLLLLLLLLLLLLLLLLLLLLLLLLLLLLLLLLLLLLLLLLLLLLLLLLLLLLLLLLLLLLLLLLLLLLLLLLLLLLLL6  I__________________",
"____________________Y  1JLLLLLLLLLLLLLLLLLLLLLLLLLLLLLLLLLLLLLLLLLLLLLLLLLLLLLLLLLLLLLLLLLLLLLLLLLLLLLLLJ1  Y___________________",
"_____________________T. &DLLLLLLLLLLLLLLLLLLLLLLLLLLLLLLLLLLLLLLLLLLLLLLLLLLLLLLLLLLLLLLLLLLLLLLLLLLLLLD& .T____________________",
"______________________WX OVLLLLLLLLLLLLLLLLLLLLLLLLLLLLLLLLLLLLLLLLLLLLLLLLLLLLLLLLLLLLLLLLLLLLLLLLLLLVO +W_____________________",
"_______________________^-  gLLLLLLLLLLLLLLLLLLLLLLLLLLLLLLLLLLLLLLLLLLLLLLLLLLLLLLLLLLLLLLLLLLLLLLLLLj  -~______________________",
"________________________(e  1DLLLLLLLLLLLLLLLLLLLLLLLLLLLLLLLLLLLLLLLLLLLLLLLLLLLLLLLLLLLLLLLLLLLLLF1  e)_______________________",
"__________________________I. OvLLLLLLLLLLLLLLLLLLLLLLLLLLLLLLLLLLLLLLLLLLLLLLLLLLLLLLLLLLLLLLLLLLLbo .P_________________________",
"___________________________!-  3DLLLLLLLLLLLLLLLLLLLLLLLLLLLLLLLLLLLLLLLLLLLLLLLLLLLLLLLLLLLLLLLD3  -!__________________________",
"____________________________)i  ofKLLLLLLLLLLLLLLLLLLLLLLLLLLLLLLLLLLLLLLLLLLLLLLLLLLLLLLLLLLLKfo  i)___________________________",
"______________________________!;  #cLLLLLLLLLLLLLLLLLLLLLLLLLLLLLLLLLLLLLLLLLLLLLLLLLLLLLLLLLc#  ;!_____________________________",
"________________________________U+  %vLLLLLLLLLLLLLLLLLLLLLLLLLLLLLLLLLLLLLLLLLLLLLLLLLLLLLv$  +U_______________________________",
"_________________________________(iX  #kKLLLLLLLLLLLLLLLLLLLLLLLLLLLLLLLLLLLLLLLLLLLLLLLKk#  Xp(________________________________",
"___________________________________(iX  o9ALLLLLLLLLLLLLLLLLLLLLLLLLLLLLLLLLLLLLLLLLLLA9o  Xi(__________________________________",
"_____________________________________(P+   =gFLLLLLLLLLLLLLLLLLLLLLLLLLLLLLLLLLLLLLDg=   @P(____________________________________",
"________________________________________Rw    =dVLLLLLLLLLLLLLLLLLLLLLLLLLLLLLLLVd=    eR)______________________________________",
"__________________________________________/I;    o1snFLLLLLLLLLLLLLLLLLLLLLFns1o    ;I/_________________________________________",
"_____________________________________________^UeX     o>7qkvNCAAGAAZNvkq5,o     XeU^____________________________________________",
"_________________________________________________!Ir-                       -rI!________________________________________________",
"_____________________________________________________)!TPye:-++   ++-:eyPT!)____________________________________________________"
};
